<svg width="179" height="46" viewBox="0 0 179 46" fill="none" xmlns="http://www.w3.org/2000/svg">
<path d="M44.9488 27.6784C45.0076 27.9175 45.0187 28.1659 44.9815 28.4094C44.9443 28.6528 44.8596 28.8866 44.732 29.0973C44.6045 29.308 44.4367 29.4915 44.2382 29.6373C44.0397 29.7831 43.8145 29.8884 43.5753 29.9471L37.8003 31.3534L39.3144 37.0042C39.3782 37.2421 39.3944 37.4902 39.3623 37.7345C39.3301 37.9787 39.2502 38.2142 39.127 38.4275C39.0038 38.6408 38.8398 38.8277 38.6443 38.9776C38.4489 39.1275 38.2258 39.2374 37.9878 39.301C37.8299 39.3466 37.6669 39.3718 37.5027 39.376C37.0902 39.3757 36.6894 39.2393 36.3622 38.988C36.0351 38.7367 35.8 38.3846 35.6933 37.9862L33.8839 31.2362L24.3777 25.7495V36.7253L29.4542 41.7995C29.6284 41.9737 29.7666 42.1805 29.8609 42.4081C29.9552 42.6357 30.0037 42.8797 30.0037 43.126C30.0037 43.3724 29.9552 43.6164 29.8609 43.844C29.7666 44.0716 29.6284 44.2784 29.4542 44.4526C29.28 44.6268 29.0732 44.765 28.8456 44.8593C28.618 44.9536 28.374 45.0021 28.1277 45.0021C27.8813 45.0021 27.6373 44.9536 27.4097 44.8593C27.1821 44.765 26.9753 44.6268 26.8011 44.4526L22.5027 40.1518L18.2042 44.4526C18.03 44.6268 17.8232 44.765 17.5956 44.8593C17.368 44.9536 17.124 45.0021 16.8777 45.0021C16.6313 45.0021 16.3873 44.9536 16.1597 44.8593C15.9321 44.765 15.7253 44.6268 15.5511 44.4526C15.3769 44.2784 15.2387 44.0716 15.1444 43.844C15.0501 43.6164 15.0016 43.3724 15.0016 43.126C15.0016 42.8797 15.0501 42.6357 15.1444 42.4081C15.2387 42.1805 15.3769 41.9737 15.5511 41.7995L20.6277 36.7253V25.7495L11.1238 31.2362L9.31438 37.9862C9.20755 38.385 8.97207 38.7374 8.64448 38.9887C8.3169 39.24 7.91553 39.3762 7.50266 39.376C7.33813 39.3758 7.1743 39.3545 7.01516 39.3128C6.7772 39.2491 6.55412 39.1392 6.35865 38.9893C6.16319 38.8394 5.99917 38.6525 5.87598 38.4392C5.75279 38.2259 5.67283 37.9904 5.64068 37.7462C5.60852 37.502 5.62481 37.2538 5.68859 37.0159L7.20266 31.3651L1.42766 29.9589C0.944673 29.8401 0.528634 29.5344 0.271065 29.1089C0.0134952 28.6835 -0.0645061 28.1731 0.0542197 27.6901C0.172946 27.2071 0.478673 26.7911 0.904147 26.5335C1.32962 26.2759 1.83999 26.1979 2.32297 26.3167L9.22531 28.0112L18.7527 22.501L9.22766 17.0026L2.32531 18.6971C2.17887 18.7334 2.02852 18.7515 1.87766 18.751C1.4192 18.7514 0.976504 18.5837 0.633282 18.2797C0.290059 17.9758 0.0700917 17.5566 0.0149674 17.1015C-0.0401569 16.6464 0.0733823 16.1868 0.334119 15.8097C0.594856 15.4326 0.984719 15.1641 1.43 15.055L7.205 13.6487L5.69094 7.9862C5.56227 7.5057 5.62974 6.99377 5.87852 6.56302C6.1273 6.13227 6.537 5.818 7.0175 5.68932C7.498 5.56065 8.00993 5.62813 8.44068 5.87691C8.87143 6.12569 9.18571 6.53539 9.31438 7.01589L11.1238 13.7659L20.6277 19.2526V8.27682L15.5511 3.20261C15.1993 2.85078 15.0016 2.3736 15.0016 1.87604C15.0016 1.62968 15.0501 1.38572 15.1444 1.15811C15.2387 0.9305 15.3769 0.723687 15.5511 0.54948C15.7253 0.375273 15.9321 0.237085 16.1597 0.142805C16.3873 0.0485253 16.6313 0 16.8777 0C17.3752 0 17.8524 0.197654 18.2042 0.54948L22.5027 4.85026L26.8011 0.54948C27.1529 0.197654 27.6301 -1.17229e-08 28.1277 0C28.6252 1.17229e-08 29.1024 0.197654 29.4542 0.54948C29.806 0.901306 30.0037 1.37849 30.0037 1.87604C30.0037 2.3736 29.806 2.85078 29.4542 3.20261L24.3777 8.27682V19.2526L33.8816 13.7659L35.6909 7.01589C35.8196 6.53539 36.1339 6.12569 36.5646 5.87691C36.9954 5.62813 37.5073 5.56065 37.9878 5.68932C38.4683 5.818 38.878 6.13227 39.1268 6.56302C39.3756 6.99377 39.443 7.5057 39.3144 7.9862L37.8003 13.637L43.5753 15.0432C44.033 15.141 44.4376 15.4064 44.7096 15.7873C44.9816 16.1681 45.1013 16.637 45.0452 17.1016C44.9891 17.5663 44.7613 17.9931 44.4064 18.2984C44.0516 18.6036 43.5955 18.765 43.1277 18.751C42.9768 18.7515 42.8264 18.7334 42.68 18.6971L35.7777 17.0026L26.2527 22.501L35.7777 27.9995L42.68 26.3049C42.9192 26.2461 43.1675 26.235 43.411 26.2722C43.6545 26.3094 43.8882 26.3941 44.0989 26.5217C44.3096 26.6492 44.4931 26.817 44.6389 27.0155C44.7847 27.214 44.89 27.4392 44.9488 27.6784Z" fill="#E1E1E6"/>
<path d="M51.5781 18V2H54.4766V15.5703H61.5234V18H51.5781Z" fill="#E1E1E6"/>
<path d="M69.7656 18.2344C68.5625 18.2344 67.5234 17.9844 66.6484 17.4844C65.7786 16.9792 65.1094 16.2656 64.6406 15.3438C64.1719 14.4167 63.9375 13.3255 63.9375 12.0703C63.9375 10.8359 64.1719 9.7526 64.6406 8.82031C65.1146 7.88281 65.776 7.15365 66.625 6.63281C67.474 6.10677 68.4714 5.84375 69.6172 5.84375C70.3568 5.84375 71.0547 5.96354 71.7109 6.20312C72.3724 6.4375 72.9557 6.80208 73.4609 7.29687C73.9714 7.79167 74.3724 8.42187 74.6641 9.1875C74.9557 9.94792 75.1016 10.8542 75.1016 11.9062V12.7734H65.2656V10.8672H72.3906C72.3854 10.3255 72.2682 9.84375 72.0391 9.42187C71.8099 8.99479 71.4896 8.65885 71.0781 8.41406C70.6719 8.16927 70.1979 8.04687 69.6562 8.04687C69.0781 8.04687 68.5703 8.1875 68.1328 8.46875C67.6953 8.74479 67.3542 9.10937 67.1094 9.5625C66.8698 10.0104 66.7474 10.5026 66.7422 11.0391V12.7031C66.7422 13.401 66.8698 14 67.125 14.5C67.3802 14.9948 67.737 15.375 68.1953 15.6406C68.6536 15.901 69.1901 16.0312 69.8047 16.0312C70.2161 16.0312 70.5885 15.974 70.9219 15.8594C71.2552 15.7396 71.5443 15.5651 71.7891 15.3359C72.0339 15.1068 72.2188 14.8229 72.3438 14.4844L74.9844 14.7812C74.8177 15.4792 74.5 16.0885 74.0313 16.6094C73.5677 17.125 72.974 17.526 72.25 17.8125C71.526 18.0938 70.6979 18.2344 69.7656 18.2344Z" fill="#E1E1E6"/>
<path d="M82.6875 18.2344C81.5156 18.2344 80.5 17.9766 79.6406 17.4609C78.7813 16.9453 78.1146 16.224 77.6406 15.2969C77.1719 14.3698 76.9375 13.2865 76.9375 12.0469C76.9375 10.8073 77.1719 9.72135 77.6406 8.78906C78.1146 7.85677 78.7813 7.13281 79.6406 6.61719C80.5 6.10156 81.5156 5.84375 82.6875 5.84375C83.8594 5.84375 84.875 6.10156 85.7344 6.61719C86.5938 7.13281 87.2578 7.85677 87.7266 8.78906C88.2005 9.72135 88.4375 10.8073 88.4375 12.0469C88.4375 13.2865 88.2005 14.3698 87.7266 15.2969C87.2578 16.224 86.5938 16.9453 85.7344 17.4609C84.875 17.9766 83.8594 18.2344 82.6875 18.2344ZM82.7031 15.9688C83.3385 15.9688 83.8698 15.7943 84.2969 15.4453C84.724 15.0911 85.0417 14.6172 85.25 14.0234C85.4635 13.4297 85.5703 12.7682 85.5703 12.0391C85.5703 11.3047 85.4635 10.6406 85.25 10.0469C85.0417 9.44792 84.724 8.97135 84.2969 8.61719C83.8698 8.26302 83.3385 8.08594 82.7031 8.08594C82.0521 8.08594 81.5104 8.26302 81.0781 8.61719C80.651 8.97135 80.3307 9.44792 80.1172 10.0469C79.9089 10.6406 79.8047 11.3047 79.8047 12.0391C79.8047 12.7682 79.9089 13.4297 80.1172 14.0234C80.3307 14.6172 80.651 15.0911 81.0781 15.4453C81.5104 15.7943 82.0521 15.9688 82.7031 15.9688ZM84.2734 4.5625L82.6875 2.5625L81.1016 4.5625H78.625V4.45313L81.5859 1.07812H83.7969L86.75 4.45313V4.5625H84.2734Z" fill="#E1E1E6"/>
<path d="M93.2812 10.9687V18H90.4531V6H93.1562V8.03906H93.2969C93.5729 7.36719 94.013 6.83333 94.6172 6.4375C95.2266 6.04167 95.9792 5.84375 96.875 5.84375C97.7031 5.84375 98.4245 6.02083 99.0391 6.375C99.6589 6.72917 100.138 7.24219 100.477 7.91406C100.82 8.58594 100.99 9.40104 100.984 10.3594V18H98.1562V10.7969C98.1562 9.99479 97.9479 9.36719 97.5312 8.91406C97.1198 8.46094 96.5495 8.23437 95.8203 8.23437C95.3255 8.23437 94.8854 8.34375 94.5 8.5625C94.1198 8.77604 93.8203 9.08594 93.6016 9.49219C93.388 9.89844 93.2812 10.3906 93.2812 10.9687Z" fill="#E1E1E6"/>
<path d="M108.688 18.2344C107.49 18.2344 106.461 17.9714 105.602 17.4453C104.747 16.9193 104.089 16.1927 103.625 15.2656C103.167 14.3333 102.938 13.2604 102.938 12.0469C102.938 10.8281 103.172 9.7526 103.641 8.82031C104.109 7.88281 104.771 7.15365 105.625 6.63281C106.484 6.10677 107.5 5.84375 108.672 5.84375C109.646 5.84375 110.508 6.02344 111.258 6.38281C112.013 6.73698 112.615 7.23958 113.063 7.89062C113.51 8.53646 113.766 9.29167 113.828 10.1562H111.125C111.016 9.57812 110.755 9.09635 110.344 8.71094C109.937 8.32031 109.393 8.125 108.711 8.125C108.133 8.125 107.625 8.28125 107.188 8.59375C106.75 8.90104 106.409 9.34375 106.164 9.92188C105.924 10.5 105.805 11.1927 105.805 12C105.805 12.8177 105.924 13.5208 106.164 14.1094C106.404 14.6927 106.74 15.1432 107.172 15.4609C107.609 15.7734 108.122 15.9297 108.711 15.9297C109.128 15.9297 109.5 15.8516 109.828 15.6953C110.161 15.5339 110.44 15.3021 110.664 15C110.888 14.6979 111.042 14.3307 111.125 13.8984H113.828C113.76 14.7474 113.51 15.5 113.078 16.1562C112.646 16.8073 112.057 17.3177 111.312 17.6875C110.568 18.0521 109.693 18.2344 108.688 18.2344Z" fill="#E1E1E6"/>
<path d="M116.453 18V6H119.281V18H116.453ZM117.875 4.29688C117.427 4.29688 117.042 4.14844 116.719 3.85156C116.396 3.54948 116.234 3.1875 116.234 2.76562C116.234 2.33854 116.396 1.97656 116.719 1.67969C117.042 1.3776 117.427 1.22656 117.875 1.22656C118.328 1.22656 118.714 1.3776 119.031 1.67969C119.354 1.97656 119.516 2.33854 119.516 2.76562C119.516 3.1875 119.354 3.54948 119.031 3.85156C118.714 4.14844 118.328 4.29688 117.875 4.29688Z" fill="#E1E1E6"/>
<path d="M127.688 18.2344C126.516 18.2344 125.5 17.9766 124.641 17.4609C123.781 16.9453 123.115 16.224 122.641 15.2969C122.172 14.3698 121.938 13.2865 121.938 12.0469C121.938 10.8073 122.172 9.72135 122.641 8.78906C123.115 7.85677 123.781 7.13281 124.641 6.61719C125.5 6.10156 126.516 5.84375 127.688 5.84375C128.859 5.84375 129.875 6.10156 130.734 6.61719C131.594 7.13281 132.258 7.85677 132.727 8.78906C133.201 9.72135 133.438 10.8073 133.438 12.0469C133.438 13.2865 133.201 14.3698 132.727 15.2969C132.258 16.224 131.594 16.9453 130.734 17.4609C129.875 17.9766 128.859 18.2344 127.688 18.2344ZM127.703 15.9688C128.339 15.9688 128.87 15.7943 129.297 15.4453C129.724 15.0911 130.042 14.6172 130.25 14.0234C130.464 13.4297 130.57 12.7682 130.57 12.0391C130.57 11.3047 130.464 10.6406 130.25 10.0469C130.042 9.44792 129.724 8.97135 129.297 8.61719C128.87 8.26302 128.339 8.08594 127.703 8.08594C127.052 8.08594 126.51 8.26302 126.078 8.61719C125.651 8.97135 125.331 9.44792 125.117 10.0469C124.909 10.6406 124.805 11.3047 124.805 12.0391C124.805 12.7682 124.909 13.4297 125.117 14.0234C125.331 14.6172 125.651 15.0911 126.078 15.4453C126.51 15.7943 127.052 15.9688 127.703 15.9688Z" fill="#E1E1E6"/>
<path d="M63.8125 29H61.875C61.7604 28.4427 61.5599 27.9531 61.2734 27.5313C60.9922 27.1094 60.6484 26.7552 60.2422 26.4688C59.8411 26.1771 59.3958 25.9583 58.9062 25.8125C58.4167 25.6667 57.9063 25.5938 57.375 25.5938C56.4063 25.5938 55.5286 25.8385 54.7422 26.3281C53.9609 26.8177 53.3385 27.5391 52.875 28.4922C52.4167 29.4453 52.1875 30.6146 52.1875 32C52.1875 33.3854 52.4167 34.5547 52.875 35.5078C53.3385 36.4609 53.9609 37.1823 54.7422 37.6719C55.5286 38.1615 56.4063 38.4062 57.375 38.4062C57.9063 38.4062 58.4167 38.3333 58.9062 38.1875C59.3958 38.0417 59.8411 37.8255 60.2422 37.5391C60.6484 37.2474 60.9922 36.8906 61.2734 36.4688C61.5599 36.0417 61.7604 35.5521 61.875 35H63.8125C63.6667 35.8177 63.401 36.5495 63.0156 37.1953C62.6302 37.8411 62.151 38.3906 61.5781 38.8438C61.0052 39.2917 60.362 39.6328 59.6484 39.8672C58.9401 40.1016 58.1823 40.2188 57.375 40.2188C56.0104 40.2188 54.7969 39.8854 53.7344 39.2188C52.6719 38.5521 51.8359 37.6042 51.2266 36.375C50.6172 35.1458 50.3125 33.6875 50.3125 32C50.3125 30.3125 50.6172 28.8542 51.2266 27.625C51.8359 26.3958 52.6719 25.4479 53.7344 24.7813C54.7969 24.1146 56.0104 23.7812 57.375 23.7812C58.1823 23.7812 58.9401 23.8984 59.6484 24.1328C60.362 24.3672 61.0052 24.7109 61.5781 25.1641C62.151 25.612 62.6302 26.1589 63.0156 26.8047C63.401 27.4453 63.6667 28.1771 63.8125 29Z" fill="#E1E1E6"/>
<path d="M69.5313 24V40H67.6875V24H69.5313Z" fill="#E1E1E6"/>
<path d="M73.6875 40V28H75.5313V40H73.6875ZM74.625 26C74.2656 26 73.9557 25.8776 73.6953 25.6328C73.4401 25.388 73.3125 25.0938 73.3125 24.75C73.3125 24.4063 73.4401 24.112 73.6953 23.8672C73.9557 23.6224 74.2656 23.5 74.625 23.5C74.9844 23.5 75.2917 23.6224 75.5469 23.8672C75.8073 24.112 75.9375 24.4063 75.9375 24.75C75.9375 25.0938 75.8073 25.388 75.5469 25.6328C75.2917 25.8776 74.9844 26 74.625 26Z" fill="#E1E1E6"/>
<path d="M79.6875 40V28H81.4688V29.875H81.625C81.875 29.2344 82.2786 28.737 82.8359 28.3828C83.3932 28.0234 84.0625 27.8438 84.8438 27.8438C85.6354 27.8438 86.2943 28.0234 86.8203 28.3828C87.3516 28.737 87.7656 29.2344 88.0625 29.875H88.1875C88.4948 29.2552 88.9557 28.763 89.5703 28.3984C90.1849 28.0286 90.9219 27.8438 91.7813 27.8438C92.8542 27.8438 93.7318 28.1797 94.4141 28.8516C95.0964 29.5182 95.4375 30.5573 95.4375 31.9687V40H93.5938V31.9687C93.5938 31.0833 93.3516 30.4505 92.8672 30.0703C92.3828 29.6901 91.8125 29.5 91.1562 29.5C90.3125 29.5 89.6589 29.7552 89.1953 30.2656C88.7318 30.7708 88.5 31.4115 88.5 32.1875V40H86.625V31.7812C86.625 31.099 86.4036 30.5495 85.9609 30.1328C85.5182 29.7109 84.9479 29.5 84.25 29.5C83.7708 29.5 83.3229 29.6276 82.9063 29.8828C82.4948 30.138 82.1615 30.4922 81.9063 30.9453C81.6563 31.3932 81.5313 31.9115 81.5313 32.5V40H79.6875Z" fill="#E1E1E6"/>
<path d="M101.219 40.2812C100.458 40.2812 99.7682 40.138 99.1484 39.8516C98.5286 39.5599 98.0365 39.1406 97.6719 38.5938C97.3073 38.0417 97.125 37.375 97.125 36.5938C97.125 35.9062 97.2604 35.349 97.5312 34.9219C97.8021 34.4896 98.1641 34.151 98.6172 33.9062C99.0703 33.6615 99.5703 33.4792 100.117 33.3594C100.669 33.2344 101.224 33.1354 101.781 33.0625C102.51 32.9687 103.102 32.8984 103.555 32.8516C104.013 32.7995 104.346 32.7135 104.555 32.5937C104.768 32.474 104.875 32.2656 104.875 31.9687V31.9062C104.875 31.1354 104.664 30.5365 104.242 30.1094C103.826 29.6823 103.193 29.4687 102.344 29.4687C101.464 29.4687 100.773 29.6615 100.273 30.0469C99.7734 30.4323 99.4219 30.8437 99.2188 31.2812L97.4688 30.6562C97.7813 29.9271 98.1979 29.3594 98.7188 28.9531C99.2448 28.5417 99.8177 28.2552 100.438 28.0937C101.063 27.9271 101.677 27.8438 102.281 27.8438C102.667 27.8438 103.109 27.8906 103.609 27.9844C104.115 28.0729 104.602 28.2578 105.07 28.5391C105.544 28.8203 105.938 29.2448 106.25 29.8125C106.563 30.3802 106.719 31.1406 106.719 32.0938V40H104.875V38.375H104.781C104.656 38.6354 104.448 38.9141 104.156 39.2109C103.865 39.5078 103.477 39.7604 102.992 39.9688C102.508 40.1771 101.917 40.2812 101.219 40.2812ZM101.5 38.625C102.229 38.625 102.844 38.4818 103.344 38.1953C103.849 37.9089 104.229 37.5391 104.484 37.0859C104.745 36.6328 104.875 36.1562 104.875 35.6562V33.9687C104.797 34.0625 104.625 34.1484 104.359 34.2266C104.099 34.2995 103.797 34.3646 103.453 34.4219C103.115 34.474 102.784 34.5208 102.461 34.5625C102.143 34.599 101.885 34.6302 101.688 34.6562C101.208 34.7187 100.76 34.8203 100.344 34.9609C99.9323 35.0964 99.599 35.3021 99.3438 35.5781C99.0938 35.849 98.9688 36.2187 98.9688 36.6875C98.9688 37.3281 99.2057 37.8125 99.6797 38.1406C100.159 38.4635 100.766 38.625 101.5 38.625Z" fill="#E1E1E6"/>
<path d="M115.906 28V29.5625H109.688V28H115.906ZM111.5 25.125H113.344V36.5625C113.344 37.0833 113.419 37.474 113.57 37.7344C113.727 37.9896 113.924 38.1615 114.164 38.25C114.409 38.3333 114.667 38.375 114.938 38.375C115.141 38.375 115.307 38.3646 115.438 38.3438C115.568 38.3177 115.672 38.2969 115.75 38.2812L116.125 39.9375C116 39.9844 115.826 40.0312 115.602 40.0781C115.378 40.1302 115.094 40.1562 114.75 40.1562C114.229 40.1562 113.719 40.0443 113.219 39.8203C112.724 39.5964 112.313 39.2552 111.984 38.7969C111.661 38.3385 111.5 37.7604 111.5 37.0625V25.125Z" fill="#E1E1E6"/>
<path d="M119.687 40V28H121.531V40H119.687ZM120.625 26C120.266 26 119.956 25.8776 119.695 25.6328C119.44 25.388 119.312 25.0938 119.312 24.75C119.312 24.4063 119.44 24.112 119.695 23.8672C119.956 23.6224 120.266 23.5 120.625 23.5C120.984 23.5 121.292 23.6224 121.547 23.8672C121.807 24.112 121.938 24.4063 121.938 24.75C121.938 25.0938 121.807 25.388 121.547 25.6328C121.292 25.8776 120.984 26 120.625 26Z" fill="#E1E1E6"/>
<path d="M123.344 40V38.5938L130.156 29.8437V29.7188H123.562V28H132.531V29.4688L125.906 38.1562V38.2812H132.75V40H123.344Z" fill="#E1E1E6"/>
<path d="M138.219 40.2812C137.458 40.2812 136.768 40.138 136.148 39.8516C135.529 39.5599 135.036 39.1406 134.672 38.5938C134.307 38.0417 134.125 37.375 134.125 36.5938C134.125 35.9062 134.26 35.349 134.531 34.9219C134.802 34.4896 135.164 34.151 135.617 33.9062C136.07 33.6615 136.57 33.4792 137.117 33.3594C137.669 33.2344 138.224 33.1354 138.781 33.0625C139.51 32.9687 140.102 32.8984 140.555 32.8516C141.013 32.7995 141.346 32.7135 141.555 32.5937C141.768 32.474 141.875 32.2656 141.875 31.9687V31.9062C141.875 31.1354 141.664 30.5365 141.242 30.1094C140.826 29.6823 140.193 29.4687 139.344 29.4687C138.464 29.4687 137.773 29.6615 137.273 30.0469C136.773 30.4323 136.422 30.8437 136.219 31.2812L134.469 30.6562C134.781 29.9271 135.198 29.3594 135.719 28.9531C136.245 28.5417 136.818 28.2552 137.438 28.0937C138.063 27.9271 138.677 27.8438 139.281 27.8438C139.667 27.8438 140.109 27.8906 140.609 27.9844C141.115 28.0729 141.602 28.2578 142.07 28.5391C142.544 28.8203 142.938 29.2448 143.25 29.8125C143.563 30.3802 143.719 31.1406 143.719 32.0938V40H141.875V38.375H141.781C141.656 38.6354 141.448 38.9141 141.156 39.2109C140.865 39.5078 140.477 39.7604 139.992 39.9688C139.508 40.1771 138.917 40.2812 138.219 40.2812ZM138.5 38.625C139.229 38.625 139.844 38.4818 140.344 38.1953C140.849 37.9089 141.229 37.5391 141.484 37.0859C141.745 36.6328 141.875 36.1562 141.875 35.6562V33.9687C141.797 34.0625 141.625 34.1484 141.359 34.2266C141.099 34.2995 140.797 34.3646 140.453 34.4219C140.115 34.474 139.784 34.5208 139.461 34.5625C139.143 34.599 138.885 34.6302 138.688 34.6562C138.208 34.7187 137.76 34.8203 137.344 34.9609C136.932 35.0964 136.599 35.3021 136.344 35.5781C136.094 35.849 135.969 36.2187 135.969 36.6875C135.969 37.3281 136.206 37.8125 136.68 38.1406C137.159 38.4635 137.766 38.625 138.5 38.625Z" fill="#E1E1E6"/>
<path d="M150.562 40.25C149.438 40.25 148.469 39.9844 147.656 39.4531C146.844 38.9219 146.219 38.1901 145.781 37.2578C145.344 36.3255 145.125 35.2604 145.125 34.0625C145.125 32.8437 145.349 31.7682 145.797 30.8359C146.25 29.8984 146.88 29.1667 147.688 28.6406C148.5 28.1094 149.448 27.8438 150.531 27.8438C151.375 27.8438 152.135 28 152.812 28.3125C153.49 28.625 154.044 29.0625 154.477 29.625C154.909 30.1875 155.177 30.8437 155.281 31.5937H153.438C153.297 31.0469 152.984 30.5625 152.5 30.1406C152.021 29.7135 151.375 29.5 150.562 29.5C149.844 29.5 149.214 29.6875 148.672 30.0625C148.135 30.4323 147.716 30.9557 147.414 31.6328C147.117 32.3047 146.969 33.0937 146.969 34C146.969 34.9271 147.115 35.7344 147.406 36.4219C147.703 37.1094 148.12 37.6432 148.656 38.0234C149.198 38.4036 149.833 38.5938 150.562 38.5938C151.042 38.5938 151.477 38.5104 151.867 38.3438C152.258 38.1771 152.589 37.9375 152.859 37.625C153.13 37.3125 153.323 36.9375 153.438 36.5H155.281C155.177 37.2083 154.919 37.8464 154.508 38.4141C154.102 38.9766 153.563 39.4245 152.891 39.7578C152.224 40.0859 151.448 40.25 150.562 40.25ZM149.688 39.9375H151.219L151.094 40.5625C151.5 40.625 151.872 40.7943 152.211 41.0703C152.549 41.3516 152.719 41.7969 152.719 42.4062C152.719 43.0781 152.44 43.625 151.883 44.0469C151.331 44.474 150.516 44.6875 149.438 44.6875L149.375 43.4688C149.859 43.4688 150.26 43.3906 150.578 43.2344C150.901 43.0833 151.063 42.8281 151.063 42.4688C151.063 42.1094 150.93 41.8646 150.664 41.7344C150.398 41.6042 149.969 41.5156 149.375 41.4688L149.688 39.9375Z" fill="#E1E1E6"/>
<path d="M160.219 40.2813C159.458 40.2813 158.768 40.138 158.148 39.8516C157.529 39.5599 157.036 39.1406 156.672 38.5938C156.307 38.0417 156.125 37.375 156.125 36.5938C156.125 35.9063 156.26 35.349 156.531 34.9219C156.802 34.4896 157.164 34.151 157.617 33.9063C158.07 33.6615 158.57 33.4792 159.117 33.3594C159.669 33.2344 160.224 33.1354 160.781 33.0625C161.51 32.9688 162.102 32.8984 162.555 32.8516C163.013 32.7995 163.346 32.7135 163.555 32.5938C163.768 32.474 163.875 32.2656 163.875 31.9688V31.9063C163.875 31.1354 163.664 30.5365 163.242 30.1094C162.826 29.6823 162.193 29.4688 161.344 29.4688C160.464 29.4688 159.773 29.6615 159.273 30.0469C158.773 30.4323 158.422 30.8438 158.219 31.2813L156.469 30.6563C156.781 29.9271 157.198 29.3594 157.719 28.9531C158.245 28.5417 158.818 28.2552 159.438 28.0938C160.063 27.9271 160.677 27.8438 161.281 27.8438C161.667 27.8438 162.109 27.8906 162.609 27.9844C163.115 28.0729 163.602 28.2578 164.07 28.5391C164.544 28.8203 164.938 29.2448 165.25 29.8125C165.563 30.3802 165.719 31.1406 165.719 32.0938V40H163.875V38.375H163.781C163.656 38.6354 163.448 38.9141 163.156 39.2109C162.865 39.5078 162.477 39.7604 161.992 39.9688C161.508 40.1771 160.917 40.2813 160.219 40.2813ZM160.5 38.625C161.229 38.625 161.844 38.4818 162.344 38.1953C162.849 37.9089 163.229 37.5391 163.484 37.0859C163.745 36.6328 163.875 36.1563 163.875 35.6563V33.9688C163.797 34.0625 163.625 34.1484 163.359 34.2266C163.099 34.2995 162.797 34.3646 162.453 34.4219C162.115 34.474 161.784 34.5208 161.461 34.5625C161.143 34.599 160.885 34.6302 160.688 34.6563C160.208 34.7188 159.76 34.8203 159.344 34.9609C158.932 35.0964 158.599 35.3021 158.344 35.5781C158.094 35.849 157.969 36.2188 157.969 36.6875C157.969 37.3281 158.206 37.8125 158.68 38.1406C159.159 38.4635 159.766 38.625 160.5 38.625ZM159 26.5625L157.562 26.5C157.562 25.7031 157.789 25.0521 158.242 24.5469C158.701 24.0365 159.266 23.7813 159.938 23.7813C160.234 23.7813 160.497 23.8333 160.727 23.9375C160.956 24.0365 161.174 24.151 161.383 24.2812C161.591 24.4115 161.805 24.5286 162.023 24.6328C162.247 24.7318 162.5 24.7813 162.781 24.7813C163.078 24.7813 163.328 24.6667 163.531 24.4375C163.74 24.2031 163.844 23.9219 163.844 23.5938L165.25 23.7188C165.25 24.5313 165.021 25.1771 164.562 25.6562C164.109 26.1354 163.547 26.375 162.875 26.375C162.516 26.375 162.219 26.3255 161.984 26.2266C161.75 26.1224 161.542 26.0052 161.359 25.875C161.177 25.7448 160.984 25.6302 160.781 25.5313C160.578 25.4271 160.328 25.375 160.031 25.375C159.734 25.375 159.487 25.4922 159.289 25.7266C159.096 25.9557 159 26.2344 159 26.5625Z" fill="#E1E1E6"/>
<path d="M173.562 40.25C172.479 40.25 171.529 39.9922 170.711 39.4766C169.898 38.9609 169.263 38.2396 168.805 37.3125C168.352 36.3854 168.125 35.3021 168.125 34.0625C168.125 32.8125 168.352 31.7214 168.805 30.7891C169.263 29.8568 169.898 29.1328 170.711 28.6172C171.529 28.1016 172.479 27.8438 173.562 27.8438C174.646 27.8438 175.594 28.1016 176.406 28.6172C177.224 29.1328 177.859 29.8568 178.312 30.7891C178.771 31.7214 179 32.8125 179 34.0625C179 35.3021 178.771 36.3854 178.312 37.3125C177.859 38.2396 177.224 38.9609 176.406 39.4766C175.594 39.9922 174.646 40.25 173.562 40.25ZM173.562 38.5938C174.385 38.5938 175.062 38.3828 175.594 37.9609C176.125 37.5391 176.518 36.9844 176.773 36.2969C177.029 35.6094 177.156 34.8646 177.156 34.0625C177.156 33.2604 177.029 32.513 176.773 31.8203C176.518 31.1276 176.125 30.5677 175.594 30.1406C175.062 29.7135 174.385 29.5 173.562 29.5C172.74 29.5 172.063 29.7135 171.531 30.1406C171 30.5677 170.607 31.1276 170.352 31.8203C170.096 32.513 169.969 33.2604 169.969 34.0625C169.969 34.8646 170.096 35.6094 170.352 36.2969C170.607 36.9844 171 37.5391 171.531 37.9609C172.063 38.3828 172.74 38.5938 173.562 38.5938Z" fill="#E1E1E6"/>
</svg>
