<svg width="250" height="28" viewBox="0 0 250 28" fill="none" xmlns="http://www.w3.org/2000/svg">
<path d="M27.9317 17.2213C27.9682 17.3701 27.9751 17.5247 27.952 17.6761C27.9289 17.8276 27.8762 17.973 27.797 18.1041C27.7177 18.2352 27.6135 18.3494 27.4901 18.4401C27.3668 18.5308 27.2268 18.5964 27.0782 18.6329L23.4895 19.5079L24.4304 23.0237C24.47 23.1718 24.4802 23.3262 24.4602 23.4781C24.4402 23.6301 24.3905 23.7766 24.314 23.9093C24.2374 24.042 24.1355 24.1583 24.014 24.2516C23.8926 24.3449 23.7539 24.4132 23.6061 24.4528C23.508 24.4812 23.4066 24.4968 23.3046 24.4995C23.0483 24.4993 22.7992 24.4144 22.5959 24.2581C22.3926 24.1017 22.2465 23.8827 22.1802 23.6348L21.0558 19.435L15.1486 16.0212V22.8502L18.3032 26.0074C18.4114 26.1157 18.4973 26.2444 18.5559 26.386C18.6145 26.5277 18.6446 26.6795 18.6446 26.8327C18.6446 26.986 18.6145 27.1378 18.5559 27.2794C18.4973 27.421 18.4114 27.5497 18.3032 27.6581C18.1949 27.7665 18.0664 27.8525 17.925 27.9111C17.7835 27.9698 17.6319 28 17.4788 28C17.3258 28 17.1742 27.9698 17.0327 27.9111C16.8913 27.8525 16.7628 27.7665 16.6545 27.6581L13.9834 24.9822L11.3123 27.6581C11.2041 27.7665 11.0755 27.8525 10.9341 27.9111C10.7927 27.9698 10.6411 28 10.488 28C10.3349 28 10.1833 27.9698 10.0418 27.9111C9.9004 27.8525 9.77188 27.7665 9.66363 27.6581C9.55537 27.5497 9.4695 27.421 9.41091 27.2794C9.35233 27.1378 9.32217 26.986 9.32217 26.8327C9.32217 26.6795 9.35233 26.5277 9.41091 26.386C9.4695 26.2444 9.55537 26.1157 9.66363 26.0074L12.8183 22.8502V16.0212L6.91243 19.435L5.78806 23.6348C5.72167 23.8829 5.57535 24.1022 5.37178 24.2585C5.16822 24.4149 4.9188 24.4996 4.66224 24.4995C4.56 24.4993 4.45819 24.4861 4.3593 24.4601C4.21143 24.4205 4.0728 24.3522 3.95134 24.2589C3.82987 24.1656 3.72795 24.0493 3.6514 23.9166C3.57485 23.7839 3.52516 23.6374 3.50518 23.4854C3.4852 23.3335 3.49532 23.1791 3.53496 23.031L4.47581 19.5152L0.887163 18.6402C0.587031 18.5663 0.328499 18.3761 0.168443 18.1114C0.00838609 17.8467 -0.0400848 17.5291 0.0336928 17.2286C0.10747 16.9281 0.297453 16.6692 0.561847 16.509C0.826241 16.3487 1.14339 16.3002 1.44352 16.3741L5.73271 17.4284L11.6531 14L5.73417 10.5789L1.44498 11.6332C1.35397 11.6558 1.26055 11.6671 1.1668 11.6668C0.881904 11.667 0.606811 11.5626 0.393529 11.3735C0.180246 11.1844 0.0435558 10.9236 0.00930091 10.6404C-0.0249539 10.3572 0.0456006 10.0713 0.207625 9.83669C0.36965 9.60206 0.611916 9.435 0.888619 9.36709L4.47727 8.49213L3.53641 4.96896C3.45646 4.67 3.49839 4.35148 3.65298 4.08347C3.80757 3.81546 4.06217 3.61992 4.36076 3.53986C4.65934 3.4598 4.97746 3.50178 5.24513 3.65657C5.51281 3.81136 5.7081 4.06628 5.78806 4.36524L6.91243 8.56504L12.8183 11.9788V5.14978L9.66363 1.99264C9.445 1.77374 9.32217 1.47684 9.32217 1.16726C9.32217 1.01397 9.35233 0.862188 9.41091 0.720569C9.4695 0.578951 9.55537 0.450273 9.66363 0.341883C9.77188 0.233493 9.9004 0.147513 10.0418 0.0888525C10.1833 0.0301921 10.3349 0 10.488 0C10.7972 0 11.0937 0.122979 11.3123 0.341883L13.9834 3.0178L16.6545 0.341883C16.8731 0.122979 17.1697 -7.29388e-09 17.4788 0C17.788 7.29388e-09 18.0846 0.122979 18.3032 0.341883C18.5218 0.560787 18.6446 0.857684 18.6446 1.16726C18.6446 1.47684 18.5218 1.77374 18.3032 1.99264L15.1486 5.14978V11.9788L21.0544 8.56504L22.1788 4.36524C22.2587 4.06628 22.454 3.81136 22.7217 3.65657C22.9894 3.50178 23.3075 3.4598 23.6061 3.53986C23.9046 3.61992 24.1592 3.81546 24.3138 4.08347C24.4684 4.35148 24.5104 4.67 24.4304 4.96896L23.4895 8.48484L27.0782 9.3598C27.3626 9.42062 27.614 9.58574 27.7831 9.82272C27.9521 10.0597 28.0265 10.3514 27.9916 10.6405C27.9567 10.9296 27.8152 11.1952 27.5947 11.3851C27.3742 11.575 27.0907 11.6755 26.8 11.6668C26.7063 11.6671 26.6128 11.6558 26.5218 11.6332L22.2326 10.5789L16.3137 14L22.2326 17.4211L26.5218 16.3668C26.6704 16.3302 26.8248 16.3232 26.9761 16.3464C27.1274 16.3695 27.2726 16.4223 27.4036 16.5016C27.5345 16.581 27.6485 16.6854 27.7391 16.8089C27.8297 16.9323 27.8952 17.0725 27.9317 17.2213Z" fill="#E1E1E6"/>
<path d="M35 21.9219V5.92188H37.8984V19.4922H44.9453V21.9219H35Z" fill="#E1E1E6"/>
<path d="M53.1875 22.1562C51.9844 22.1562 50.9453 21.9062 50.0703 21.4062C49.2005 20.901 48.5313 20.1875 48.0625 19.2656C47.5938 18.3385 47.3594 17.2474 47.3594 15.9922C47.3594 14.7578 47.5938 13.6745 48.0625 12.7422C48.5365 11.8047 49.1979 11.0755 50.0469 10.5547C50.8958 10.0286 51.8932 9.76562 53.0391 9.76562C53.7786 9.76562 54.4766 9.88542 55.1328 10.125C55.7943 10.3594 56.3776 10.724 56.8828 11.2187C57.3932 11.7135 57.7943 12.3437 58.0859 13.1094C58.3776 13.8698 58.5234 14.776 58.5234 15.8281V16.6953H48.6875V14.7891H55.8125C55.8073 14.2474 55.6901 13.7656 55.4609 13.3437C55.2318 12.9167 54.9115 12.5807 54.5 12.3359C54.0938 12.0911 53.6198 11.9687 53.0781 11.9687C52.5 11.9687 51.9922 12.1094 51.5547 12.3906C51.1172 12.6667 50.776 13.0312 50.5313 13.4844C50.2917 13.9323 50.1693 14.4245 50.1641 14.9609V16.625C50.1641 17.3229 50.2917 17.9219 50.5469 18.4219C50.8021 18.9167 51.1589 19.2969 51.6172 19.5625C52.0755 19.8229 52.612 19.9531 53.2266 19.9531C53.638 19.9531 54.0104 19.8958 54.3438 19.7812C54.6771 19.6615 54.9661 19.487 55.2109 19.2578C55.4557 19.0286 55.6406 18.7448 55.7656 18.4062L58.4062 18.7031C58.2396 19.401 57.9219 20.0104 57.4531 20.5312C56.9896 21.0469 56.3958 21.4479 55.6719 21.7344C54.9479 22.0156 54.1198 22.1562 53.1875 22.1562Z" fill="#E1E1E6"/>
<path d="M66.1094 22.1563C64.9375 22.1563 63.9219 21.8984 63.0625 21.3828C62.2031 20.8672 61.5365 20.1458 61.0625 19.2188C60.5938 18.2917 60.3594 17.2083 60.3594 15.9688C60.3594 14.7292 60.5938 13.6432 61.0625 12.7109C61.5365 11.7786 62.2031 11.0547 63.0625 10.5391C63.9219 10.0234 64.9375 9.76563 66.1094 9.76563C67.2812 9.76563 68.2969 10.0234 69.1562 10.5391C70.0156 11.0547 70.6797 11.7786 71.1484 12.7109C71.6224 13.6432 71.8594 14.7292 71.8594 15.9688C71.8594 17.2083 71.6224 18.2917 71.1484 19.2188C70.6797 20.1458 70.0156 20.8672 69.1562 21.3828C68.2969 21.8984 67.2812 22.1563 66.1094 22.1563ZM66.125 19.8906C66.7604 19.8906 67.2917 19.7161 67.7188 19.3672C68.1458 19.013 68.4635 18.5391 68.6719 17.9453C68.8854 17.3516 68.9922 16.6901 68.9922 15.9609C68.9922 15.2266 68.8854 14.5625 68.6719 13.9688C68.4635 13.3698 68.1458 12.8932 67.7188 12.5391C67.2917 12.1849 66.7604 12.0078 66.125 12.0078C65.474 12.0078 64.9323 12.1849 64.5 12.5391C64.0729 12.8932 63.7526 13.3698 63.5391 13.9688C63.3307 14.5625 63.2266 15.2266 63.2266 15.9609C63.2266 16.6901 63.3307 17.3516 63.5391 17.9453C63.7526 18.5391 64.0729 19.013 64.5 19.3672C64.9323 19.7161 65.474 19.8906 66.125 19.8906ZM67.6953 8.48438L66.1094 6.48438L64.5234 8.48438H62.0469V8.375L65.0078 5H67.2188L70.1719 8.375V8.48438H67.6953Z" fill="#E1E1E6"/>
<path d="M76.7031 14.8906V21.9219H73.875V9.92187H76.5781V11.9609H76.7188C76.9948 11.2891 77.4349 10.7552 78.0391 10.3594C78.6484 9.96354 79.401 9.76562 80.2969 9.76562C81.125 9.76562 81.8464 9.94271 82.4609 10.2969C83.0807 10.651 83.5599 11.1641 83.8984 11.8359C84.2422 12.5078 84.4115 13.3229 84.4062 14.2812V21.9219H81.5781V14.7187C81.5781 13.9167 81.3698 13.2891 80.9531 12.8359C80.5417 12.3828 79.9714 12.1562 79.2422 12.1562C78.7474 12.1562 78.3073 12.2656 77.9219 12.4844C77.5417 12.6979 77.2422 13.0078 77.0234 13.4141C76.8099 13.8203 76.7031 14.3125 76.7031 14.8906Z" fill="#E1E1E6"/>
<path d="M92.1094 22.1562C90.9115 22.1562 89.8828 21.8932 89.0234 21.3672C88.1693 20.8411 87.5104 20.1146 87.0469 19.1875C86.5885 18.2552 86.3594 17.1823 86.3594 15.9688C86.3594 14.75 86.5938 13.6745 87.0625 12.7422C87.5313 11.8047 88.1927 11.0755 89.0469 10.5547C89.9063 10.0286 90.9219 9.76562 92.0938 9.76562C93.0677 9.76562 93.9297 9.94531 94.6797 10.3047C95.4349 10.6589 96.0365 11.1615 96.4844 11.8125C96.9323 12.4583 97.1875 13.2135 97.25 14.0781H94.5469C94.4375 13.5 94.1771 13.0182 93.7656 12.6328C93.3594 12.2422 92.8151 12.0469 92.1328 12.0469C91.5547 12.0469 91.0469 12.2031 90.6094 12.5156C90.1719 12.8229 89.8307 13.2656 89.5859 13.8438C89.3464 14.4219 89.2266 15.1146 89.2266 15.9219C89.2266 16.7396 89.3464 17.4427 89.5859 18.0312C89.8255 18.6146 90.1615 19.0651 90.5938 19.3828C91.0313 19.6953 91.5443 19.8516 92.1328 19.8516C92.5495 19.8516 92.9219 19.7734 93.25 19.6172C93.5833 19.4557 93.862 19.224 94.0859 18.9219C94.3099 18.6198 94.4635 18.2526 94.5469 17.8203H97.25C97.1823 18.6693 96.9323 19.4219 96.5 20.0781C96.0677 20.7292 95.4792 21.2396 94.7344 21.6094C93.9896 21.974 93.1146 22.1562 92.1094 22.1562Z" fill="#E1E1E6"/>
<path d="M99.875 21.9219V9.92188H102.703V21.9219H99.875ZM101.297 8.21875C100.849 8.21875 100.464 8.07031 100.141 7.77344C99.8177 7.47135 99.6562 7.10937 99.6562 6.6875C99.6562 6.26042 99.8177 5.89844 100.141 5.60156C100.464 5.29948 100.849 5.14844 101.297 5.14844C101.75 5.14844 102.135 5.29948 102.453 5.60156C102.776 5.89844 102.938 6.26042 102.938 6.6875C102.938 7.10937 102.776 7.47135 102.453 7.77344C102.135 8.07031 101.75 8.21875 101.297 8.21875Z" fill="#E1E1E6"/>
<path d="M111.109 22.1562C109.938 22.1562 108.922 21.8984 108.062 21.3828C107.203 20.8672 106.536 20.1458 106.063 19.2188C105.594 18.2917 105.359 17.2083 105.359 15.9688C105.359 14.7292 105.594 13.6432 106.063 12.7109C106.536 11.7786 107.203 11.0547 108.062 10.5391C108.922 10.0234 109.938 9.76562 111.109 9.76562C112.281 9.76562 113.297 10.0234 114.156 10.5391C115.016 11.0547 115.68 11.7786 116.148 12.7109C116.622 13.6432 116.859 14.7292 116.859 15.9688C116.859 17.2083 116.622 18.2917 116.148 19.2188C115.68 20.1458 115.016 20.8672 114.156 21.3828C113.297 21.8984 112.281 22.1562 111.109 22.1562ZM111.125 19.8906C111.76 19.8906 112.292 19.7161 112.719 19.3672C113.146 19.013 113.464 18.5391 113.672 17.9453C113.885 17.3516 113.992 16.6901 113.992 15.9609C113.992 15.2266 113.885 14.5625 113.672 13.9688C113.464 13.3698 113.146 12.8932 112.719 12.5391C112.292 12.1849 111.76 12.0078 111.125 12.0078C110.474 12.0078 109.932 12.1849 109.5 12.5391C109.073 12.8932 108.753 13.3698 108.539 13.9688C108.331 14.5625 108.227 15.2266 108.227 15.9609C108.227 16.6901 108.331 17.3516 108.539 17.9453C108.753 18.5391 109.073 19.013 109.5 19.3672C109.932 19.7161 110.474 19.8906 111.125 19.8906Z" fill="#E1E1E6"/>
<path d="M134.5 11.5H132.563C132.448 10.9427 132.247 10.4531 131.961 10.0313C131.68 9.60938 131.336 9.25521 130.93 8.96875C130.529 8.67708 130.083 8.45833 129.594 8.3125C129.104 8.16667 128.594 8.09375 128.063 8.09375C127.094 8.09375 126.216 8.33854 125.43 8.82813C124.648 9.31771 124.026 10.0391 123.563 10.9922C123.104 11.9453 122.875 13.1146 122.875 14.5C122.875 15.8854 123.104 17.0547 123.563 18.0078C124.026 18.9609 124.648 19.6823 125.43 20.1719C126.216 20.6615 127.094 20.9062 128.063 20.9062C128.594 20.9062 129.104 20.8333 129.594 20.6875C130.083 20.5417 130.529 20.3255 130.93 20.0391C131.336 19.7474 131.68 19.3906 131.961 18.9688C132.247 18.5417 132.448 18.0521 132.563 17.5H134.5C134.354 18.3177 134.089 19.0495 133.703 19.6953C133.318 20.3411 132.839 20.8906 132.266 21.3438C131.693 21.7917 131.049 22.1328 130.336 22.3672C129.628 22.6016 128.87 22.7188 128.063 22.7188C126.698 22.7188 125.484 22.3854 124.422 21.7188C123.359 21.0521 122.523 20.1042 121.914 18.875C121.305 17.6458 121 16.1875 121 14.5C121 12.8125 121.305 11.3542 121.914 10.125C122.523 8.89583 123.359 7.94792 124.422 7.28125C125.484 6.61458 126.698 6.28125 128.063 6.28125C128.87 6.28125 129.628 6.39844 130.336 6.63281C131.049 6.86719 131.693 7.21094 132.266 7.66406C132.839 8.11198 133.318 8.65885 133.703 9.30469C134.089 9.94531 134.354 10.6771 134.5 11.5Z" fill="#E1E1E6"/>
<path d="M140.219 6.5V22.5H138.375V6.5H140.219Z" fill="#E1E1E6"/>
<path d="M144.375 22.5V10.5H146.219V22.5H144.375ZM145.312 8.5C144.953 8.5 144.643 8.3776 144.383 8.13281C144.128 7.88802 144 7.59375 144 7.25C144 6.90625 144.128 6.61198 144.383 6.36719C144.643 6.1224 144.953 6 145.312 6C145.672 6 145.979 6.1224 146.234 6.36719C146.495 6.61198 146.625 6.90625 146.625 7.25C146.625 7.59375 146.495 7.88802 146.234 8.13281C145.979 8.3776 145.672 8.5 145.312 8.5Z" fill="#E1E1E6"/>
<path d="M150.375 22.5V10.5H152.156V12.375H152.313C152.563 11.7344 152.966 11.237 153.523 10.8828C154.081 10.5234 154.75 10.3438 155.531 10.3438C156.323 10.3438 156.982 10.5234 157.508 10.8828C158.039 11.237 158.453 11.7344 158.75 12.375H158.875C159.182 11.7552 159.643 11.263 160.258 10.8984C160.872 10.5286 161.609 10.3438 162.469 10.3438C163.542 10.3438 164.419 10.6797 165.102 11.3516C165.784 12.0182 166.125 13.0573 166.125 14.4687V22.5H164.281V14.4687C164.281 13.5833 164.039 12.9505 163.555 12.5703C163.07 12.1901 162.5 12 161.844 12C161 12 160.346 12.2552 159.883 12.7656C159.419 13.2708 159.188 13.9115 159.188 14.6875V22.5H157.313V14.2812C157.313 13.599 157.091 13.0495 156.648 12.6328C156.206 12.2109 155.635 12 154.938 12C154.458 12 154.01 12.1276 153.594 12.3828C153.182 12.638 152.849 12.9922 152.594 13.4453C152.344 13.8932 152.219 14.4115 152.219 15V22.5H150.375Z" fill="#E1E1E6"/>
<path d="M171.906 22.7812C171.146 22.7812 170.456 22.638 169.836 22.3516C169.216 22.0599 168.724 21.6406 168.359 21.0938C167.995 20.5417 167.812 19.875 167.812 19.0938C167.812 18.4062 167.948 17.849 168.219 17.4219C168.49 16.9896 168.852 16.651 169.305 16.4062C169.758 16.1615 170.258 15.9792 170.805 15.8594C171.357 15.7344 171.911 15.6354 172.469 15.5625C173.198 15.4687 173.789 15.3984 174.242 15.3516C174.701 15.2995 175.034 15.2135 175.242 15.0937C175.456 14.974 175.562 14.7656 175.562 14.4687V14.4062C175.562 13.6354 175.352 13.0365 174.93 12.6094C174.513 12.1823 173.88 11.9687 173.031 11.9687C172.151 11.9687 171.461 12.1615 170.961 12.5469C170.461 12.9323 170.109 13.3437 169.906 13.7812L168.156 13.1562C168.469 12.4271 168.885 11.8594 169.406 11.4531C169.932 11.0417 170.505 10.7552 171.125 10.5937C171.75 10.4271 172.365 10.3438 172.969 10.3438C173.354 10.3438 173.797 10.3906 174.297 10.4844C174.802 10.5729 175.289 10.7578 175.758 11.0391C176.232 11.3203 176.625 11.7448 176.938 12.3125C177.25 12.8802 177.406 13.6406 177.406 14.5938V22.5H175.562V20.875H175.469C175.344 21.1354 175.135 21.4141 174.844 21.7109C174.552 22.0078 174.164 22.2604 173.68 22.4688C173.195 22.6771 172.604 22.7812 171.906 22.7812ZM172.188 21.125C172.917 21.125 173.531 20.9818 174.031 20.6953C174.536 20.4089 174.917 20.0391 175.172 19.5859C175.432 19.1328 175.562 18.6562 175.562 18.1562V16.4687C175.484 16.5625 175.313 16.6484 175.047 16.7266C174.786 16.7995 174.484 16.8646 174.141 16.9219C173.802 16.974 173.471 17.0208 173.148 17.0625C172.831 17.099 172.573 17.1302 172.375 17.1562C171.896 17.2187 171.448 17.3203 171.031 17.4609C170.62 17.5964 170.286 17.8021 170.031 18.0781C169.781 18.349 169.656 18.7187 169.656 19.1875C169.656 19.8281 169.893 20.3125 170.367 20.6406C170.846 20.9635 171.453 21.125 172.188 21.125Z" fill="#E1E1E6"/>
<path d="M186.594 10.5V12.0625H180.375V10.5H186.594ZM182.188 7.625H184.031V19.0625C184.031 19.5833 184.107 19.974 184.258 20.2344C184.414 20.4896 184.612 20.6615 184.852 20.75C185.096 20.8333 185.354 20.875 185.625 20.875C185.828 20.875 185.995 20.8646 186.125 20.8438C186.255 20.8177 186.359 20.7969 186.438 20.7812L186.813 22.4375C186.688 22.4844 186.513 22.5312 186.289 22.5781C186.065 22.6302 185.781 22.6562 185.438 22.6562C184.917 22.6562 184.406 22.5443 183.906 22.3203C183.411 22.0964 183 21.7552 182.672 21.2969C182.349 20.8385 182.188 20.2604 182.188 19.5625V7.625Z" fill="#E1E1E6"/>
<path d="M190.375 22.5V10.5H192.219V22.5H190.375ZM191.312 8.5C190.953 8.5 190.643 8.3776 190.383 8.13281C190.128 7.88802 190 7.59375 190 7.25C190 6.90625 190.128 6.61198 190.383 6.36719C190.643 6.1224 190.953 6 191.312 6C191.672 6 191.979 6.1224 192.234 6.36719C192.495 6.61198 192.625 6.90625 192.625 7.25C192.625 7.59375 192.495 7.88802 192.234 8.13281C191.979 8.3776 191.672 8.5 191.312 8.5Z" fill="#E1E1E6"/>
<path d="M194.031 22.5V21.0938L200.844 12.3437V12.2188H194.25V10.5H203.219V11.9688L196.594 20.6562V20.7812H203.438V22.5H194.031Z" fill="#E1E1E6"/>
<path d="M208.906 22.7812C208.146 22.7812 207.456 22.638 206.836 22.3516C206.216 22.0599 205.724 21.6406 205.359 21.0938C204.995 20.5417 204.812 19.875 204.812 19.0938C204.812 18.4062 204.948 17.849 205.219 17.4219C205.49 16.9896 205.852 16.651 206.305 16.4062C206.758 16.1615 207.258 15.9792 207.805 15.8594C208.357 15.7344 208.911 15.6354 209.469 15.5625C210.198 15.4687 210.789 15.3984 211.242 15.3516C211.701 15.2995 212.034 15.2135 212.242 15.0937C212.456 14.974 212.562 14.7656 212.562 14.4687V14.4062C212.562 13.6354 212.352 13.0365 211.93 12.6094C211.513 12.1823 210.88 11.9687 210.031 11.9687C209.151 11.9687 208.461 12.1615 207.961 12.5469C207.461 12.9323 207.109 13.3437 206.906 13.7812L205.156 13.1562C205.469 12.4271 205.885 11.8594 206.406 11.4531C206.932 11.0417 207.505 10.7552 208.125 10.5937C208.75 10.4271 209.365 10.3438 209.969 10.3438C210.354 10.3438 210.797 10.3906 211.297 10.4844C211.802 10.5729 212.289 10.7578 212.758 11.0391C213.232 11.3203 213.625 11.7448 213.938 12.3125C214.25 12.8802 214.406 13.6406 214.406 14.5938V22.5H212.562V20.875H212.469C212.344 21.1354 212.135 21.4141 211.844 21.7109C211.552 22.0078 211.164 22.2604 210.68 22.4688C210.195 22.6771 209.604 22.7812 208.906 22.7812ZM209.188 21.125C209.917 21.125 210.531 20.9818 211.031 20.6953C211.536 20.4089 211.917 20.0391 212.172 19.5859C212.432 19.1328 212.562 18.6562 212.562 18.1562V16.4687C212.484 16.5625 212.313 16.6484 212.047 16.7266C211.786 16.7995 211.484 16.8646 211.141 16.9219C210.802 16.974 210.471 17.0208 210.148 17.0625C209.831 17.099 209.573 17.1302 209.375 17.1562C208.896 17.2187 208.448 17.3203 208.031 17.4609C207.62 17.5964 207.286 17.8021 207.031 18.0781C206.781 18.349 206.656 18.7187 206.656 19.1875C206.656 19.8281 206.893 20.3125 207.367 20.6406C207.846 20.9635 208.453 21.125 209.188 21.125Z" fill="#E1E1E6"/>
<path d="M221.25 22.75C220.125 22.75 219.156 22.4844 218.344 21.9531C217.531 21.4219 216.906 20.6901 216.469 19.7578C216.031 18.8255 215.812 17.7604 215.812 16.5625C215.812 15.3437 216.036 14.2682 216.484 13.3359C216.937 12.3984 217.568 11.6667 218.375 11.1406C219.188 10.6094 220.135 10.3438 221.219 10.3438C222.062 10.3438 222.823 10.5 223.5 10.8125C224.177 11.125 224.732 11.5625 225.164 12.125C225.596 12.6875 225.865 13.3437 225.969 14.0937H224.125C223.984 13.5469 223.672 13.0625 223.188 12.6406C222.708 12.2135 222.062 12 221.25 12C220.531 12 219.901 12.1875 219.359 12.5625C218.823 12.9323 218.404 13.4557 218.102 14.1328C217.805 14.8047 217.656 15.5937 217.656 16.5C217.656 17.4271 217.802 18.2344 218.094 18.9219C218.391 19.6094 218.807 20.1432 219.344 20.5234C219.885 20.9036 220.521 21.0938 221.25 21.0938C221.729 21.0938 222.164 21.0104 222.555 20.8438C222.945 20.6771 223.276 20.4375 223.547 20.125C223.818 19.8125 224.01 19.4375 224.125 19H225.969C225.865 19.7083 225.607 20.3464 225.195 20.9141C224.789 21.4766 224.25 21.9245 223.578 22.2578C222.911 22.5859 222.135 22.75 221.25 22.75ZM220.375 22.4375H221.906L221.781 23.0625C222.188 23.125 222.56 23.2943 222.898 23.5703C223.237 23.8516 223.406 24.2969 223.406 24.9062C223.406 25.5781 223.128 26.125 222.57 26.5469C222.018 26.974 221.203 27.1875 220.125 27.1875L220.062 25.9688C220.547 25.9688 220.948 25.8906 221.266 25.7344C221.589 25.5833 221.75 25.3281 221.75 24.9688C221.75 24.6094 221.617 24.3646 221.352 24.2344C221.086 24.1042 220.656 24.0156 220.062 23.9688L220.375 22.4375Z" fill="#E1E1E6"/>
<path d="M230.906 22.7813C230.146 22.7813 229.456 22.638 228.836 22.3516C228.216 22.0599 227.724 21.6406 227.359 21.0938C226.995 20.5417 226.812 19.875 226.812 19.0938C226.812 18.4063 226.948 17.849 227.219 17.4219C227.49 16.9896 227.852 16.651 228.305 16.4063C228.758 16.1615 229.258 15.9792 229.805 15.8594C230.357 15.7344 230.911 15.6354 231.469 15.5625C232.198 15.4688 232.789 15.3984 233.242 15.3516C233.701 15.2995 234.034 15.2135 234.242 15.0938C234.456 14.974 234.562 14.7656 234.562 14.4688V14.4063C234.562 13.6354 234.352 13.0365 233.93 12.6094C233.513 12.1823 232.88 11.9688 232.031 11.9688C231.151 11.9688 230.461 12.1615 229.961 12.5469C229.461 12.9323 229.109 13.3438 228.906 13.7813L227.156 13.1563C227.469 12.4271 227.885 11.8594 228.406 11.4531C228.932 11.0417 229.505 10.7552 230.125 10.5938C230.75 10.4271 231.365 10.3438 231.969 10.3438C232.354 10.3438 232.797 10.3906 233.297 10.4844C233.802 10.5729 234.289 10.7578 234.758 11.0391C235.232 11.3203 235.625 11.7448 235.938 12.3125C236.25 12.8802 236.406 13.6406 236.406 14.5938V22.5H234.562V20.875H234.469C234.344 21.1354 234.135 21.4141 233.844 21.7109C233.552 22.0078 233.164 22.2604 232.68 22.4688C232.195 22.6771 231.604 22.7813 230.906 22.7813ZM231.188 21.125C231.917 21.125 232.531 20.9818 233.031 20.6953C233.536 20.4089 233.917 20.0391 234.172 19.5859C234.432 19.1328 234.562 18.6563 234.562 18.1563V16.4688C234.484 16.5625 234.313 16.6484 234.047 16.7266C233.786 16.7995 233.484 16.8646 233.141 16.9219C232.802 16.974 232.471 17.0208 232.148 17.0625C231.831 17.099 231.573 17.1302 231.375 17.1563C230.896 17.2188 230.448 17.3203 230.031 17.4609C229.62 17.5964 229.286 17.8021 229.031 18.0781C228.781 18.349 228.656 18.7188 228.656 19.1875C228.656 19.8281 228.893 20.3125 229.367 20.6406C229.846 20.9635 230.453 21.125 231.188 21.125ZM229.688 9.0625L228.25 9C228.25 8.20313 228.477 7.55208 228.93 7.04688C229.388 6.53646 229.953 6.28125 230.625 6.28125C230.922 6.28125 231.185 6.33333 231.414 6.4375C231.643 6.53646 231.862 6.65104 232.07 6.78125C232.279 6.91146 232.492 7.02865 232.711 7.13281C232.935 7.23177 233.188 7.28125 233.469 7.28125C233.766 7.28125 234.016 7.16667 234.219 6.9375C234.427 6.70313 234.531 6.42188 234.531 6.09375L235.938 6.21875C235.938 7.03125 235.708 7.67708 235.25 8.15625C234.797 8.63542 234.234 8.875 233.563 8.875C233.203 8.875 232.906 8.82552 232.672 8.72656C232.438 8.6224 232.229 8.50521 232.047 8.375C231.865 8.24479 231.672 8.13021 231.469 8.03125C231.266 7.92708 231.016 7.875 230.719 7.875C230.422 7.875 230.174 7.99219 229.977 8.22656C229.784 8.45573 229.688 8.73438 229.688 9.0625Z" fill="#E1E1E6"/>
<path d="M244.25 22.75C243.167 22.75 242.216 22.4922 241.398 21.9766C240.586 21.4609 239.951 20.7396 239.492 19.8125C239.039 18.8854 238.812 17.8021 238.812 16.5625C238.812 15.3125 239.039 14.2214 239.492 13.2891C239.951 12.3568 240.586 11.6328 241.398 11.1172C242.216 10.6016 243.167 10.3438 244.25 10.3438C245.333 10.3438 246.281 10.6016 247.094 11.1172C247.911 11.6328 248.547 12.3568 249 13.2891C249.458 14.2214 249.688 15.3125 249.688 16.5625C249.688 17.8021 249.458 18.8854 249 19.8125C248.547 20.7396 247.911 21.4609 247.094 21.9766C246.281 22.4922 245.333 22.75 244.25 22.75ZM244.25 21.0938C245.073 21.0938 245.75 20.8828 246.281 20.4609C246.813 20.0391 247.206 19.4844 247.461 18.7969C247.716 18.1094 247.844 17.3646 247.844 16.5625C247.844 15.7604 247.716 15.013 247.461 14.3203C247.206 13.6276 246.813 13.0677 246.281 12.6406C245.75 12.2135 245.073 12 244.25 12C243.427 12 242.75 12.2135 242.219 12.6406C241.688 13.0677 241.294 13.6276 241.039 14.3203C240.784 15.013 240.656 15.7604 240.656 16.5625C240.656 17.3646 240.784 18.1094 241.039 18.7969C241.294 19.4844 241.688 20.0391 242.219 20.4609C242.75 20.8828 243.427 21.0938 244.25 21.0938Z" fill="#E1E1E6"/>
</svg>
